<mxfile host="Electron" modified="2023-09-12T13:44:34.117Z" agent="Mozilla/5.0 (Macintosh; Intel Mac OS X 10_15_7) AppleWebKit/537.36 (KHTML, like Gecko) draw.io/21.6.5 Chrome/114.0.5735.243 Electron/25.3.1 Safari/537.36" version="21.6.5" etag="Fh2vBh9az9VdV-jTj82B" type="device">
  <diagram id="C5RBs43oDa-KdzZeNtuy" name="Page-1">
    <mxGraphModel dx="1026" dy="667" grid="1" gridSize="10" guides="1" tooltips="1" connect="1" arrows="1" fold="1" page="1" pageScale="1" pageWidth="827" pageHeight="1169" math="0" shadow="0">
      <root>
        <mxCell id="WIyWlLk6GJQsqaUBKTNV-0" />
        <mxCell id="WIyWlLk6GJQsqaUBKTNV-1" parent="WIyWlLk6GJQsqaUBKTNV-0" />
        <mxCell id="05XnmWyHJhX3w0zN24I0-25" value="" style="rounded=1;whiteSpace=wrap;html=1;" vertex="1" parent="WIyWlLk6GJQsqaUBKTNV-1">
          <mxGeometry x="220" y="455" width="400" height="85" as="geometry" />
        </mxCell>
        <mxCell id="05XnmWyHJhX3w0zN24I0-23" value="" style="rounded=1;whiteSpace=wrap;html=1;" vertex="1" parent="WIyWlLk6GJQsqaUBKTNV-1">
          <mxGeometry x="220" y="330" width="400" height="90" as="geometry" />
        </mxCell>
        <mxCell id="05XnmWyHJhX3w0zN24I0-21" value="" style="rounded=1;whiteSpace=wrap;html=1;" vertex="1" parent="WIyWlLk6GJQsqaUBKTNV-1">
          <mxGeometry x="220" y="220" width="400" height="100" as="geometry" />
        </mxCell>
        <mxCell id="05XnmWyHJhX3w0zN24I0-19" value="" style="rounded=1;whiteSpace=wrap;html=1;fillColor=#b1ddf0;strokeColor=#10739e;" vertex="1" parent="WIyWlLk6GJQsqaUBKTNV-1">
          <mxGeometry x="220" y="110" width="400" height="100" as="geometry" />
        </mxCell>
        <mxCell id="05XnmWyHJhX3w0zN24I0-2" value="" style="edgeStyle=orthogonalEdgeStyle;rounded=0;orthogonalLoop=1;jettySize=auto;html=1;endArrow=block;endFill=0;strokeColor=#00FF00;" edge="1" parent="WIyWlLk6GJQsqaUBKTNV-1" source="05XnmWyHJhX3w0zN24I0-0" target="05XnmWyHJhX3w0zN24I0-1">
          <mxGeometry relative="1" as="geometry" />
        </mxCell>
        <mxCell id="05XnmWyHJhX3w0zN24I0-5" value="" style="edgeStyle=orthogonalEdgeStyle;rounded=0;orthogonalLoop=1;jettySize=auto;html=1;exitX=0.25;exitY=0;exitDx=0;exitDy=0;" edge="1" parent="WIyWlLk6GJQsqaUBKTNV-1" source="05XnmWyHJhX3w0zN24I0-0" target="05XnmWyHJhX3w0zN24I0-4">
          <mxGeometry relative="1" as="geometry" />
        </mxCell>
        <mxCell id="05XnmWyHJhX3w0zN24I0-9" style="edgeStyle=orthogonalEdgeStyle;rounded=0;orthogonalLoop=1;jettySize=auto;html=1;exitX=0.75;exitY=0;exitDx=0;exitDy=0;entryX=0.5;entryY=1;entryDx=0;entryDy=0;" edge="1" parent="WIyWlLk6GJQsqaUBKTNV-1" source="05XnmWyHJhX3w0zN24I0-0" target="05XnmWyHJhX3w0zN24I0-8">
          <mxGeometry relative="1" as="geometry" />
        </mxCell>
        <mxCell id="05XnmWyHJhX3w0zN24I0-0" value="PlacesViewController" style="rounded=0;whiteSpace=wrap;html=1;fillColor=#60a917;fontColor=#ffffff;strokeColor=#2D7600;" vertex="1" parent="WIyWlLk6GJQsqaUBKTNV-1">
          <mxGeometry x="340" y="480" width="140" height="40" as="geometry" />
        </mxCell>
        <mxCell id="05XnmWyHJhX3w0zN24I0-1" value="UIKit" style="rounded=0;whiteSpace=wrap;html=1;strokeColor=#2D7600;fontColor=#ffffff;fillColor=#60a917;" vertex="1" parent="WIyWlLk6GJQsqaUBKTNV-1">
          <mxGeometry x="350" y="570" width="120" height="40" as="geometry" />
        </mxCell>
        <mxCell id="05XnmWyHJhX3w0zN24I0-4" value="&amp;lt;PlacesLoader&amp;gt;" style="rounded=0;whiteSpace=wrap;html=1;fillColor=#f0a30a;fontColor=#000000;strokeColor=#BD7000;" vertex="1" parent="WIyWlLk6GJQsqaUBKTNV-1">
          <mxGeometry x="250" y="360" width="120" height="40" as="geometry" />
        </mxCell>
        <mxCell id="05XnmWyHJhX3w0zN24I0-7" value="" style="edgeStyle=orthogonalEdgeStyle;rounded=0;orthogonalLoop=1;jettySize=auto;html=1;dashed=1;endArrow=block;endFill=0;strokeColor=#3399FF;" edge="1" parent="WIyWlLk6GJQsqaUBKTNV-1" source="05XnmWyHJhX3w0zN24I0-6" target="05XnmWyHJhX3w0zN24I0-4">
          <mxGeometry relative="1" as="geometry" />
        </mxCell>
        <mxCell id="05XnmWyHJhX3w0zN24I0-17" value="" style="edgeStyle=orthogonalEdgeStyle;rounded=0;orthogonalLoop=1;jettySize=auto;html=1;" edge="1" parent="WIyWlLk6GJQsqaUBKTNV-1" source="05XnmWyHJhX3w0zN24I0-6" target="05XnmWyHJhX3w0zN24I0-16">
          <mxGeometry relative="1" as="geometry" />
        </mxCell>
        <mxCell id="05XnmWyHJhX3w0zN24I0-6" value="RemotePlacesLoader" style="rounded=0;whiteSpace=wrap;html=1;fontColor=#ffffff;labelBorderColor=none;strokeColor=#006EAF;fillColor=#1ba1e2;" vertex="1" parent="WIyWlLk6GJQsqaUBKTNV-1">
          <mxGeometry x="245" y="250" width="130" height="40" as="geometry" />
        </mxCell>
        <mxCell id="05XnmWyHJhX3w0zN24I0-8" value="&amp;lt;LocationController&amp;gt;" style="rounded=0;whiteSpace=wrap;html=1;fillColor=#f0a30a;fontColor=#000000;strokeColor=#BD7000;" vertex="1" parent="WIyWlLk6GJQsqaUBKTNV-1">
          <mxGeometry x="470" y="360" width="120" height="40" as="geometry" />
        </mxCell>
        <mxCell id="05XnmWyHJhX3w0zN24I0-11" value="" style="edgeStyle=orthogonalEdgeStyle;rounded=0;orthogonalLoop=1;jettySize=auto;html=1;dashed=1;endArrow=block;endFill=0;" edge="1" parent="WIyWlLk6GJQsqaUBKTNV-1" source="05XnmWyHJhX3w0zN24I0-10" target="05XnmWyHJhX3w0zN24I0-8">
          <mxGeometry relative="1" as="geometry" />
        </mxCell>
        <mxCell id="05XnmWyHJhX3w0zN24I0-15" value="" style="edgeStyle=orthogonalEdgeStyle;rounded=0;orthogonalLoop=1;jettySize=auto;html=1;" edge="1" parent="WIyWlLk6GJQsqaUBKTNV-1" source="05XnmWyHJhX3w0zN24I0-10" target="05XnmWyHJhX3w0zN24I0-13">
          <mxGeometry relative="1" as="geometry" />
        </mxCell>
        <mxCell id="05XnmWyHJhX3w0zN24I0-10" value="CoreLocationController" style="rounded=0;whiteSpace=wrap;html=1;fillColor=#6a00ff;fontColor=#ffffff;strokeColor=#3700CC;" vertex="1" parent="WIyWlLk6GJQsqaUBKTNV-1">
          <mxGeometry x="460" y="250" width="140" height="40" as="geometry" />
        </mxCell>
        <mxCell id="05XnmWyHJhX3w0zN24I0-12" value="Foursquare&lt;br&gt;API" style="ellipse;shape=cloud;whiteSpace=wrap;html=1;" vertex="1" parent="WIyWlLk6GJQsqaUBKTNV-1">
          <mxGeometry x="250" y="10" width="120" height="80" as="geometry" />
        </mxCell>
        <mxCell id="05XnmWyHJhX3w0zN24I0-13" value="CoreLocation" style="ellipse;whiteSpace=wrap;html=1;" vertex="1" parent="WIyWlLk6GJQsqaUBKTNV-1">
          <mxGeometry x="475" y="130" width="110" height="60" as="geometry" />
        </mxCell>
        <mxCell id="05XnmWyHJhX3w0zN24I0-18" value="" style="edgeStyle=orthogonalEdgeStyle;rounded=0;orthogonalLoop=1;jettySize=auto;html=1;" edge="1" parent="WIyWlLk6GJQsqaUBKTNV-1" source="05XnmWyHJhX3w0zN24I0-16" target="05XnmWyHJhX3w0zN24I0-12">
          <mxGeometry relative="1" as="geometry" />
        </mxCell>
        <mxCell id="05XnmWyHJhX3w0zN24I0-16" value="AdyenNetworking" style="ellipse;whiteSpace=wrap;html=1;" vertex="1" parent="WIyWlLk6GJQsqaUBKTNV-1">
          <mxGeometry x="250" y="130" width="120" height="60" as="geometry" />
        </mxCell>
        <mxCell id="05XnmWyHJhX3w0zN24I0-20" value="Specific Frameworks &lt;br&gt;(dependencies we do not control)" style="text;html=1;align=center;verticalAlign=middle;resizable=0;points=[];autosize=1;strokeColor=none;fillColor=none;" vertex="1" parent="WIyWlLk6GJQsqaUBKTNV-1">
          <mxGeometry x="10" y="140" width="200" height="40" as="geometry" />
        </mxCell>
        <mxCell id="05XnmWyHJhX3w0zN24I0-22" value="Dependency wrappers" style="text;html=1;align=center;verticalAlign=middle;resizable=0;points=[];autosize=1;strokeColor=none;fillColor=none;" vertex="1" parent="WIyWlLk6GJQsqaUBKTNV-1">
          <mxGeometry x="60" y="250" width="140" height="30" as="geometry" />
        </mxCell>
        <mxCell id="05XnmWyHJhX3w0zN24I0-24" value="Business use cases" style="text;html=1;align=center;verticalAlign=middle;resizable=0;points=[];autosize=1;strokeColor=none;fillColor=none;" vertex="1" parent="WIyWlLk6GJQsqaUBKTNV-1">
          <mxGeometry x="70" y="360" width="130" height="30" as="geometry" />
        </mxCell>
        <mxCell id="05XnmWyHJhX3w0zN24I0-26" value="UI" style="text;html=1;align=center;verticalAlign=middle;resizable=0;points=[];autosize=1;strokeColor=none;fillColor=none;" vertex="1" parent="WIyWlLk6GJQsqaUBKTNV-1">
          <mxGeometry x="160" y="508" width="40" height="30" as="geometry" />
        </mxCell>
      </root>
    </mxGraphModel>
  </diagram>
</mxfile>
